{"title":"Con Air 1997 DVDRip Xvid BigPerm LKRG","uid":6618242,"size":1169967210,"categoryP":"video","categoryS":"movies","magnet":"?xt=urn:btih:0df49e690228fce3ee51d45a94aeb1f2bb030fe8&amp;dn=Con+Air+1997+DVDRip+Xvid+BigPerm+LKRG&amp;tr=udp%3A%2F%2Ftracker.openbittorrent.com%3A80&amp;tr=udp%3A%2F%2Fopen.demonii.com%3A1337&amp;tr=udp%3A%2F%2Ftracker.coppersurfer.tk%3A6969&amp;tr=udp%3A%2F%2Fexodus.desync.com%3A6969","seeders":2,"leechers":1,"uploader":".BONE.","files":2,"time":1313875889,"description":"PLOT\n\nA newly released ex-con and former US Ranger finds himself trapped in a prisoner transport plane when\nthe passengers seize control.\n\nEncoded By .......: BigPerm1828\nRuntime ..........: 1h 55mn\nFile Size ........: 1.09 GB\nResolution .......: 704 x 396\nIMDb URL .........: http://www.imdb.com/title/tt0118880/\nGenre ............: Action | Crime | Thriller\nLanguage .........: English\nVideo\nID : 0\nFormat : MPEG-4 Visual\nFormat profile : Advanced Simple@L5\nFormat settings, BVOP : Yes\nFormat settings, QPel : No\nFormat settings, GMC : No warppoints\nFormat settings, Matrix : Default (H.263)\nCodec ID : XVID\nCodec ID/Hint : XviD\nDuration : 1h 55mn\nBit rate : 42.9 Kbps\nWidth : 704 pixels\nHeight : 396 pixels\nDisplay aspect ratio : 16:9\nFrame rate : 23.976 fps\nColor space : YUV\nChroma subsampling : 4:2:0\nBit depth : 8 bits\nScan type : Progressive\nCompression mode : Lossy\nBits/(Pixel*Frame) : 0.006\nStream size : 35.4 MiB (3%)\nWriting library : XviD 1.2.1 (UTC 2008-12-04)\n\nAudio\nID : 1\nFormat : AC-3\nFormat/Info : Audio Coding 3\nCodec ID : 2000\nDuration : 1h 55mn\nBit rate mode : Constant\nBit rate : 448 Kbps\nChannel(s) : 6 channels\nSampling rate : 48.0 KHz\nBit depth : 16 bits\nCompression mode : Lossy\nStream size : 370 MiB (33%)\nAlignment : Aligned on interleaves\n &lt;a href=&quot;\nhttp://www.imdb.com/title/tt0118880/&quot; rel=&quot;nofollow&quot; target=&quot;_NEW&quot;&gt;\nhttp://www.imdb.com/title/tt0118880/&lt;/a&gt;\n &lt;a href=&quot;\nhttp://leetleech.org/images/07944076294382065962.png&quot; rel=&quot;nofollow&quot; target=&quot;_NEW&quot;&gt;\nhttp://leetleech.org/images/07944076294382065962.png&lt;/a&gt;\n &lt;a href=&quot;\nhttp://leetleech.org/images/47028012922076538816.png&quot; rel=&quot;nofollow&quot; target=&quot;_NEW&quot;&gt;\nhttp://leetleech.org/images/47028012922076538816.png&lt;/a&gt;\n &lt;a href=&quot;\nhttp://leetleech.org/images/40699698245806892175.png&quot; rel=&quot;nofollow&quot; target=&quot;_NEW&quot;&gt;\nhttp://leetleech.org/images/40699698245806892175.png&lt;/a&gt;\n &lt;a href=&quot;\nhttp://leetleech.org/images/12959451251361486737.png&quot; rel=&quot;nofollow&quot; target=&quot;_NEW&quot;&gt;\nhttp://leetleech.org/images/12959451251361486737.png&lt;/a&gt;\n &lt;a href=&quot;\nhttp://leetleech.org/images/71938925008019275143.png&quot; rel=&quot;nofollow&quot; target=&quot;_NEW&quot;&gt;\nhttp://leetleech.org/images/71938925008019275143.png&lt;/a&gt;","torrent":{"xt":"urn:btih:0df49e690228fce3ee51d45a94aeb1f2bb030fe8","amp;dn":"Con+Air+1997+DVDRip+Xvid+BigPerm+LKRG","amp;tr":["udp%3A%2F%2Ftracker.openbittorrent.com%3A80","udp%3A%2F%2Fopen.demonii.com%3A1337","udp%3A%2F%2Ftracker.coppersurfer.tk%3A6969","udp%3A%2F%2Fexodus.desync.com%3A6969"],"infoHash":"0df49e690228fce3ee51d45a94aeb1f2bb030fe8","infoHashBuffer":{"type":"Buffer","data":[13,244,158,105,2,40,252,227,238,81,212,90,148,174,177,242,187,3,15,232]},"announce":[],"urlList":[]}}